<svg width="16" height="20" viewBox="0 0 16 20" fill="none" xmlns="http://www.w3.org/2000/svg">
<path d="M8 0.354492C5.829 0.354492 5.556 0.36627 4.703 0.411023C3.85 0.458133 3.269 0.615949 2.76 0.849141C2.22609 1.08565 1.74249 1.45665 1.343 1.93619C0.936076 2.40693 0.621107 2.97641 0.42 3.60504C0.222 4.20333 0.087 4.88877 0.048 5.88984C0.01 6.89681 0 7.21715 0 9.77754C0 12.3356 0.01 12.6559 0.048 13.6605C0.088 14.664 0.222 15.3482 0.42 15.9477C0.625 16.5672 0.898 17.0925 1.343 17.6165C1.787 18.1406 2.233 18.4633 2.759 18.7036C3.269 18.9368 3.849 19.0958 4.701 19.1417C5.555 19.1865 5.827 19.1982 8 19.1982C10.173 19.1982 10.444 19.1865 11.298 19.1417C12.149 19.0946 12.732 18.9368 13.241 18.7036C13.7746 18.467 14.2578 18.096 14.657 17.6165C15.102 17.0925 15.375 16.5672 15.58 15.9477C15.777 15.3482 15.912 14.664 15.952 13.6605C15.99 12.6559 16 12.3356 16 9.77637C16 7.21715 15.99 6.89681 15.952 5.89102C15.912 4.88877 15.777 4.20333 15.58 3.60504C15.3789 2.9764 15.0639 2.40691 14.657 1.93619C14.2576 1.45647 13.774 1.08545 13.24 0.849141C12.73 0.615949 12.148 0.456955 11.297 0.411023C10.443 0.36627 10.172 0.354492 7.998 0.354492H8.001H8ZM7.283 2.05279H8.001C10.137 2.05279 10.39 2.06103 11.233 2.10696C12.013 2.14818 12.437 2.30246 12.719 2.43084C13.092 2.60161 13.359 2.80654 13.639 3.1363C13.919 3.46607 14.092 3.77934 14.237 4.21982C14.347 4.55076 14.477 5.05012 14.512 5.96875C14.551 6.96158 14.559 7.25955 14.559 9.77401C14.559 12.2885 14.551 12.5876 14.512 13.5804C14.477 14.4991 14.346 14.9973 14.237 15.3294C14.1087 15.7385 13.904 16.1083 13.638 16.4117C13.358 16.7415 13.092 16.9452 12.718 17.116C12.438 17.2456 12.014 17.3987 11.233 17.4411C10.39 17.4858 10.137 17.4964 8.001 17.4964C5.865 17.4964 5.611 17.4858 4.768 17.4411C3.988 17.3987 3.565 17.2456 3.283 17.116C2.9355 16.9651 2.62113 16.7245 2.363 16.4117C2.09675 16.1079 1.89172 15.7377 1.763 15.3282C1.654 14.9973 1.523 14.4979 1.488 13.5793C1.45 12.5864 1.442 12.2885 1.442 9.77166C1.442 7.25602 1.45 6.95923 1.488 5.9664C1.524 5.04776 1.654 4.5484 1.764 4.21628C1.909 3.77699 2.083 3.46253 2.363 3.13277C2.643 2.803 2.909 2.59925 3.283 2.42848C3.565 2.29893 3.988 2.14583 4.768 2.10343C5.506 2.06338 5.792 2.05161 7.283 2.05043V2.05279ZM12.271 3.61682C12.1449 3.61682 12.0201 3.64606 11.9036 3.70289C11.7872 3.7597 11.6813 3.84298 11.5922 3.94797C11.503 4.05295 11.4323 4.17759 11.3841 4.31477C11.3358 4.45195 11.311 4.59896 11.311 4.74744C11.311 4.89592 11.3358 5.04294 11.3841 5.18012C11.4323 5.31729 11.503 5.44193 11.5922 5.54691C11.6813 5.65191 11.7872 5.73518 11.9036 5.792C12.0201 5.84882 12.1449 5.87807 12.271 5.87807C12.5256 5.87807 12.7698 5.75895 12.9498 5.54691C13.1299 5.33488 13.231 5.0473 13.231 4.74744C13.231 4.44758 13.1299 4.16 12.9498 3.94797C12.7698 3.73593 12.5256 3.61682 12.271 3.61682ZM8.001 4.93823C7.45607 4.92822 6.91489 5.04599 6.40898 5.28465C5.90306 5.52333 5.44251 5.87815 5.05415 6.32846C4.66579 6.77877 4.35736 7.31557 4.14684 7.90761C3.93632 8.49964 3.8279 9.13509 3.8279 9.77696C3.8279 10.4188 3.93632 11.0543 4.14684 11.6463C4.35736 12.2383 4.66579 12.7751 5.05415 13.2255C5.44251 13.6757 5.90306 14.0306 6.40898 14.2693C6.91489 14.5079 7.45607 14.6257 8.001 14.6157C9.07954 14.5959 10.1082 14.0773 10.865 13.1721C11.6217 12.2668 12.0459 11.0473 12.0459 9.77696C12.0459 8.50657 11.6217 7.28712 10.865 6.38184C10.1082 5.47657 9.07954 4.95806 8.001 4.93823ZM8.001 6.63535C8.70833 6.63535 9.38669 6.96628 9.88685 7.55534C10.387 8.14439 10.668 8.94332 10.668 9.77637C10.668 10.6094 10.387 11.4083 9.88685 11.9974C9.38669 12.5864 8.70833 12.9174 8.001 12.9174C7.29367 12.9174 6.61531 12.5864 6.11515 11.9974C5.61499 11.4083 5.334 10.6094 5.334 9.77637C5.334 8.94332 5.61499 8.14439 6.11515 7.55534C6.61531 6.96628 7.29367 6.63535 8.001 6.63535Z" fill="white"/>
</svg>
