<svg width="16" height="17" viewBox="0 0 16 17" fill="none" xmlns="http://www.w3.org/2000/svg">
<path d="M5.026 16.1982C11.064 16.1982 14.367 10.3063 14.367 5.20585C14.367 5.04098 14.367 4.87375 14.361 4.70887C15.0041 4.16065 15.5591 3.48192 16 2.70448C15.3993 3.01638 14.7628 3.22196 14.111 3.31451C14.7975 2.83124 15.3117 2.07085 15.558 1.17469C14.913 1.6247 14.207 1.94061 13.471 2.10857C12.9762 1.48797 12.3214 1.07684 11.6081 0.938866C10.8948 0.80089 10.1627 0.94377 9.52534 1.34537C8.88796 1.74698 8.38081 2.38489 8.08245 3.16031C7.78409 3.93572 7.71118 4.80537 7.875 5.63452C6.56974 5.55744 5.29282 5.15812 4.12704 4.46244C2.96127 3.76676 1.93268 2.79027 1.108 1.59629C0.68934 2.44785 0.561574 3.45512 0.750646 4.41359C0.939718 5.37205 1.43145 6.20985 2.126 6.75684C1.60554 6.73602 1.09652 6.57143 0.64 6.27635V6.32935C0.640897 7.22141 0.903307 8.08575 1.38287 8.77627C1.86244 9.46678 2.52975 9.94112 3.272 10.1191C2.99026 10.2105 2.69923 10.2561 2.407 10.2545C2.20098 10.2553 1.99538 10.2328 1.793 10.1874C2.00279 10.9553 2.41127 11.6267 2.96125 12.1076C3.51122 12.5884 4.17513 12.8546 4.86 12.869C3.69656 13.9451 2.2594 14.5288 0.78 14.5259C0.519321 14.5272 0.258823 14.5096 0 14.473C1.50151 15.6003 3.2453 16.1988 5.026 16.1982Z" fill="white"/>
</svg>
