<svg id="svg" version="1.1" xmlns="http://www.w3.org/2000/svg" xmlns:xlink="http://www.w3.org/1999/xlink" width="400" height="400" viewBox="0, 0, 400,400"><g id="svgg"><path id="path0" d="M196.663 62.272 C 196.483 62.452,194.775 62.716,192.868 62.858 C 189.322 63.123,187.615 63.411,186.200 63.985 C 185.760 64.163,184.590 64.541,183.600 64.824 C 182.610 65.107,181.629 65.488,181.420 65.670 C 181.211 65.851,180.716 66.000,180.320 66.000 C 179.924 66.000,179.600 66.180,179.600 66.400 C 179.600 66.620,179.366 66.800,179.080 66.800 C 178.344 66.800,176.407 67.741,176.403 68.100 C 176.401 68.265,176.040 68.400,175.600 68.400 C 175.160 68.400,174.800 68.550,174.800 68.732 C 174.800 68.915,174.305 69.319,173.700 69.630 C 173.095 69.940,172.309 70.511,171.953 70.897 C 171.597 71.284,171.105 71.600,170.859 71.600 C 170.010 71.600,160.967 80.442,160.585 81.647 C 160.454 82.061,160.207 82.400,160.037 82.400 C 159.868 82.400,159.385 83.118,158.964 83.995 C 158.544 84.873,158.065 85.593,157.900 85.595 C 157.735 85.598,157.600 85.945,157.600 86.367 C 157.600 86.788,157.465 87.193,157.300 87.267 C 156.868 87.459,155.200 90.772,155.200 91.438 C 155.200 91.747,155.020 92.000,154.800 92.000 C 154.580 92.000,154.400 92.360,154.400 92.800 C 154.400 93.240,154.220 93.600,154.000 93.600 C 153.780 93.600,153.600 94.039,153.600 94.576 C 153.600 95.113,153.420 95.664,153.200 95.800 C 152.980 95.936,152.800 96.566,152.800 97.200 C 152.800 97.834,152.620 98.464,152.400 98.600 C 152.180 98.736,152.000 99.546,152.000 100.400 C 152.000 101.254,151.820 102.064,151.600 102.200 C 151.354 102.352,151.200 105.730,151.200 111.000 C 151.200 116.270,151.354 119.648,151.600 119.800 C 151.820 119.936,152.000 120.847,152.000 121.824 C 152.000 122.801,152.180 123.600,152.400 123.600 C 152.620 123.600,152.800 124.140,152.800 124.800 C 152.800 125.460,152.980 126.000,153.200 126.000 C 153.420 126.000,153.600 126.540,153.600 127.200 C 153.600 127.860,153.780 128.400,154.000 128.400 C 154.220 128.400,154.400 128.760,154.400 129.200 C 154.400 129.640,154.580 130.000,154.800 130.000 C 155.020 130.000,155.200 130.540,155.200 131.200 C 155.200 131.860,155.346 132.400,155.525 132.400 C 155.704 132.400,156.098 133.030,156.400 133.800 C 156.702 134.570,157.096 135.200,157.275 135.200 C 157.454 135.200,157.600 135.470,157.600 135.800 C 157.600 136.130,157.780 136.400,158.000 136.400 C 158.220 136.400,158.400 136.760,158.400 137.200 C 158.400 137.640,158.541 138.000,158.714 138.000 C 158.886 138.000,159.367 138.585,159.781 139.300 C 160.196 140.015,161.045 141.097,161.667 141.703 C 162.290 142.310,162.802 142.940,162.804 143.103 C 162.811 143.549,165.878 146.669,167.530 147.909 C 168.329 148.509,169.508 149.495,170.150 150.100 C 170.793 150.705,171.562 151.200,171.859 151.200 C 172.157 151.200,172.400 151.350,172.400 151.532 C 172.400 151.715,172.895 152.120,173.500 152.432 C 174.105 152.744,174.690 153.097,174.800 153.217 C 176.203 154.751,186.300 158.371,190.053 158.686 C 191.564 158.812,192.800 159.070,192.800 159.258 C 192.800 159.446,195.860 159.600,199.600 159.600 C 203.340 159.600,206.400 159.446,206.400 159.258 C 206.400 159.070,207.636 158.812,209.147 158.686 C 213.454 158.325,222.629 154.861,224.975 152.711 C 225.402 152.320,225.987 152.000,226.275 152.000 C 226.564 152.000,226.800 151.850,226.800 151.668 C 226.800 151.485,227.289 151.080,227.886 150.768 C 228.483 150.455,229.608 149.628,230.386 148.929 C 231.164 148.230,232.655 146.902,233.700 145.978 C 234.745 145.054,235.600 144.127,235.600 143.918 C 235.600 143.708,236.286 142.876,237.125 142.069 C 239.010 140.253,241.600 136.454,241.600 135.505 C 241.600 135.117,241.780 134.800,242.000 134.800 C 242.220 134.800,242.400 134.440,242.400 134.000 C 242.400 133.560,242.535 133.199,242.700 133.197 C 243.059 133.193,244.000 131.256,244.000 130.520 C 244.000 130.234,244.180 130.000,244.400 130.000 C 244.620 130.000,244.800 129.651,244.800 129.224 C 244.800 128.797,244.980 128.336,245.200 128.200 C 245.420 128.064,245.600 127.513,245.600 126.976 C 245.600 126.439,245.780 126.000,246.000 126.000 C 246.220 126.000,246.400 125.280,246.400 124.400 C 246.400 123.520,246.580 122.800,246.800 122.800 C 247.020 122.800,247.200 122.091,247.200 121.224 C 247.200 120.357,247.380 119.536,247.600 119.400 C 247.845 119.248,248.000 116.004,248.000 111.000 C 248.000 105.996,247.845 102.752,247.600 102.600 C 247.380 102.464,247.200 101.654,247.200 100.800 C 247.200 99.946,247.020 99.136,246.800 99.000 C 246.580 98.864,246.400 98.234,246.400 97.600 C 246.400 96.966,246.220 96.336,246.000 96.200 C 245.780 96.064,245.600 95.513,245.600 94.976 C 245.600 94.439,245.420 94.000,245.200 94.000 C 244.980 94.000,244.800 93.550,244.800 93.000 C 244.800 92.450,244.620 92.000,244.400 92.000 C 244.180 92.000,244.000 91.640,244.000 91.200 C 244.000 90.760,243.820 90.400,243.600 90.400 C 243.380 90.400,243.200 90.040,243.200 89.600 C 243.200 89.160,243.020 88.800,242.800 88.800 C 242.580 88.800,242.400 88.440,242.400 88.000 C 242.400 87.560,242.220 87.200,242.000 87.200 C 241.780 87.200,241.600 86.938,241.600 86.618 C 241.600 86.298,241.147 85.353,240.593 84.518 C 240.039 83.683,239.364 82.664,239.093 82.254 C 237.852 80.374,236.863 79.244,234.672 77.200 C 233.375 75.990,231.494 74.235,230.493 73.300 C 229.492 72.365,228.471 71.600,228.225 71.600 C 227.978 71.600,227.517 71.240,227.200 70.800 C 226.883 70.360,226.303 70.000,225.912 70.000 C 225.520 70.000,225.200 69.850,225.200 69.668 C 225.200 69.485,224.705 69.080,224.100 68.768 C 223.495 68.456,222.910 68.111,222.800 68.001 C 222.262 67.461,220.723 66.800,220.005 66.800 C 219.562 66.800,219.200 66.620,219.200 66.400 C 219.200 66.180,218.840 66.000,218.400 66.000 C 217.960 66.000,217.600 65.820,217.600 65.600 C 217.600 65.380,217.238 65.200,216.795 65.200 C 216.352 65.200,215.677 65.042,215.295 64.849 C 214.167 64.280,211.804 63.600,210.952 63.600 C 210.516 63.600,209.989 63.433,209.780 63.229 C 209.571 63.025,207.960 62.757,206.200 62.634 C 204.440 62.511,201.648 62.305,199.995 62.177 C 198.342 62.048,196.843 62.091,196.663 62.272 " stroke="none" fill="#ec141c" fill-rule="evenodd"></path><path id="path1" d="M47.000 57.200 C 46.864 57.420,45.244 57.600,43.400 57.600 C 41.556 57.600,39.952 57.754,39.836 57.942 C 39.720 58.130,38.557 58.395,37.252 58.531 C 34.980 58.769,30.166 60.066,28.705 60.835 C 28.323 61.036,27.735 61.200,27.397 61.200 C 26.448 61.200,25.733 63.080,26.322 64.024 C 26.585 64.445,26.800 65.116,26.800 65.515 C 26.800 65.914,26.943 66.411,27.118 66.620 C 27.293 66.829,27.665 67.720,27.945 68.600 C 28.476 70.274,29.050 71.722,29.647 72.895 C 29.841 73.277,30.000 73.952,30.000 74.395 C 30.000 74.838,30.180 75.200,30.400 75.200 C 30.620 75.200,30.800 75.639,30.800 76.176 C 30.800 76.713,30.980 77.264,31.200 77.400 C 31.420 77.536,31.600 77.997,31.600 78.424 C 31.600 78.851,31.780 79.200,32.000 79.200 C 32.220 79.200,32.400 79.740,32.400 80.400 C 32.400 81.060,32.580 81.600,32.800 81.600 C 33.020 81.600,33.200 81.962,33.200 82.405 C 33.200 82.848,33.380 83.568,33.600 84.005 C 33.820 84.442,34.180 85.158,34.400 85.595 C 34.620 86.032,34.800 86.752,34.800 87.195 C 34.800 87.638,34.980 88.000,35.200 88.000 C 35.420 88.000,35.600 88.450,35.600 89.000 C 35.600 89.550,35.780 90.000,36.000 90.000 C 36.220 90.000,36.400 90.439,36.400 90.976 C 36.400 91.513,36.580 92.064,36.800 92.200 C 37.020 92.336,37.200 92.797,37.200 93.224 C 37.200 93.651,37.380 94.000,37.600 94.000 C 37.820 94.000,38.000 94.540,38.000 95.200 C 38.000 95.860,38.180 96.400,38.400 96.400 C 38.620 96.400,38.800 96.940,38.800 97.600 C 38.800 98.260,38.980 98.800,39.200 98.800 C 39.420 98.800,39.600 99.149,39.600 99.576 C 39.600 100.003,39.780 100.464,40.000 100.600 C 40.220 100.736,40.400 101.287,40.400 101.824 C 40.400 102.361,40.580 102.800,40.800 102.800 C 41.020 102.800,41.200 103.162,41.200 103.605 C 41.200 104.048,41.368 104.723,41.574 105.105 C 41.780 105.487,42.418 107.240,42.993 109.000 C 43.567 110.760,44.209 112.513,44.419 112.895 C 44.628 113.277,44.800 113.952,44.800 114.395 C 44.800 114.838,44.980 115.200,45.200 115.200 C 45.420 115.200,45.600 115.639,45.600 116.176 C 45.600 116.713,45.780 117.264,46.000 117.400 C 46.220 117.536,46.400 117.991,46.400 118.411 C 46.400 118.832,46.760 119.817,47.200 120.600 C 47.640 121.383,48.000 122.379,48.000 122.812 C 48.000 123.245,48.180 123.600,48.400 123.600 C 48.620 123.600,48.800 124.140,48.800 124.800 C 48.800 125.460,48.980 126.000,49.200 126.000 C 49.420 126.000,49.600 126.349,49.600 126.776 C 49.600 127.203,49.780 127.664,50.000 127.800 C 50.220 127.936,50.400 128.487,50.400 129.024 C 50.400 129.561,50.580 130.000,50.800 130.000 C 51.020 130.000,51.200 130.540,51.200 131.200 C 51.200 131.860,51.380 132.400,51.600 132.400 C 51.820 132.400,52.000 132.749,52.000 133.176 C 52.000 133.603,52.180 134.064,52.400 134.200 C 52.620 134.336,52.800 134.887,52.800 135.424 C 52.800 135.961,52.980 136.400,53.200 136.400 C 53.420 136.400,53.600 136.839,53.600 137.376 C 53.600 137.913,53.780 138.464,54.000 138.600 C 54.220 138.736,54.400 139.287,54.400 139.824 C 54.400 140.361,54.580 140.800,54.800 140.800 C 55.020 140.800,55.200 141.149,55.200 141.576 C 55.200 142.003,55.380 142.464,55.600 142.600 C 55.820 142.736,56.000 143.287,56.000 143.824 C 56.000 144.361,56.180 144.800,56.400 144.800 C 56.620 144.800,56.800 145.340,56.800 146.000 C 56.800 146.660,56.980 147.200,57.200 147.200 C 57.420 147.200,57.600 147.614,57.600 148.120 C 57.600 148.626,57.750 149.211,57.932 149.420 C 58.115 149.629,58.596 150.934,59.001 152.319 C 59.407 153.705,59.887 154.930,60.069 155.043 C 60.251 155.155,60.400 155.687,60.400 156.224 C 60.400 156.761,60.580 157.200,60.800 157.200 C 61.020 157.200,61.200 157.562,61.200 158.005 C 61.200 158.448,61.380 159.168,61.600 159.605 C 61.820 160.042,62.180 160.758,62.400 161.195 C 62.620 161.632,62.800 162.264,62.800 162.600 C 62.800 162.936,62.980 163.568,63.200 164.005 C 63.420 164.442,63.780 165.158,64.000 165.595 C 64.220 166.032,64.400 166.664,64.400 167.000 C 64.400 167.336,64.559 167.923,64.753 168.305 C 64.948 168.687,65.329 169.540,65.600 170.200 C 65.871 170.860,66.252 171.713,66.447 172.095 C 66.641 172.477,66.800 173.152,66.800 173.595 C 66.800 174.038,66.980 174.400,67.200 174.400 C 67.420 174.400,67.600 174.839,67.600 175.376 C 67.600 175.913,67.780 176.464,68.000 176.600 C 68.220 176.736,68.400 177.197,68.400 177.624 C 68.400 178.051,68.580 178.400,68.800 178.400 C 69.020 178.400,69.200 178.940,69.200 179.600 C 69.200 180.260,69.380 180.800,69.600 180.800 C 69.820 180.800,70.000 181.250,70.000 181.800 C 70.000 182.350,70.180 182.800,70.400 182.800 C 70.620 182.800,70.800 183.250,70.800 183.800 C 70.800 184.350,70.980 184.800,71.200 184.800 C 71.420 184.800,71.600 185.340,71.600 186.000 C 71.600 186.660,71.780 187.200,72.000 187.200 C 72.220 187.200,72.400 187.650,72.400 188.200 C 72.400 188.750,72.580 189.200,72.800 189.200 C 73.020 189.200,73.200 189.639,73.200 190.176 C 73.200 190.713,73.380 191.264,73.600 191.400 C 73.820 191.536,74.000 191.997,74.000 192.424 C 74.000 192.851,74.180 193.200,74.400 193.200 C 74.620 193.200,74.800 193.608,74.800 194.106 C 74.800 194.604,75.175 195.999,75.634 197.206 C 76.092 198.413,76.557 199.760,76.667 200.200 C 76.777 200.640,77.056 201.450,77.287 202.000 C 77.518 202.550,77.884 203.450,78.100 204.000 C 78.316 204.550,78.652 205.313,78.847 205.695 C 79.041 206.077,79.200 206.752,79.200 207.195 C 79.200 207.638,79.347 208.000,79.528 208.000 C 79.708 208.000,80.104 208.911,80.407 210.025 C 80.710 211.139,81.103 212.140,81.279 212.249 C 81.456 212.358,81.600 212.887,81.600 213.424 C 81.600 213.961,81.780 214.400,82.000 214.400 C 82.220 214.400,82.400 214.839,82.400 215.376 C 82.400 215.913,82.580 216.464,82.800 216.600 C 83.020 216.736,83.200 217.276,83.200 217.800 C 83.200 218.324,83.380 218.864,83.600 219.000 C 83.820 219.136,84.000 219.597,84.000 220.024 C 84.000 220.451,84.180 220.800,84.400 220.800 C 84.620 220.800,84.800 221.239,84.800 221.776 C 84.800 222.313,84.980 222.864,85.200 223.000 C 85.420 223.136,85.600 223.687,85.600 224.224 C 85.600 224.761,85.780 225.200,86.000 225.200 C 86.220 225.200,86.400 225.560,86.400 226.000 C 86.400 226.440,86.580 226.800,86.800 226.800 C 87.020 226.800,87.200 227.340,87.200 228.000 C 87.200 228.660,87.380 229.200,87.600 229.200 C 87.820 229.200,88.000 229.562,88.000 230.005 C 88.000 230.448,88.180 231.168,88.400 231.605 C 88.620 232.042,88.980 232.758,89.200 233.195 C 89.420 233.632,89.600 234.352,89.600 234.795 C 89.600 235.238,89.780 235.600,90.000 235.600 C 90.220 235.600,90.400 236.039,90.400 236.576 C 90.400 237.113,90.580 237.664,90.800 237.800 C 91.020 237.936,91.200 238.487,91.200 239.024 C 91.200 239.561,91.380 240.000,91.600 240.000 C 91.820 240.000,92.000 240.266,92.000 240.592 C 92.000 241.430,93.996 247.323,94.435 247.780 C 94.636 247.989,94.800 248.486,94.800 248.885 C 94.800 249.284,94.980 249.968,95.200 250.405 C 95.420 250.842,95.780 251.558,96.000 251.995 C 96.220 252.432,96.400 253.152,96.400 253.595 C 96.400 254.038,96.580 254.400,96.800 254.400 C 97.020 254.400,97.200 254.850,97.200 255.400 C 97.200 255.950,97.380 256.400,97.600 256.400 C 97.820 256.400,98.000 256.839,98.000 257.376 C 98.000 257.913,98.180 258.464,98.400 258.600 C 98.620 258.736,98.800 259.276,98.800 259.800 C 98.800 260.324,98.980 260.864,99.200 261.000 C 99.420 261.136,99.600 261.597,99.600 262.024 C 99.600 262.451,99.780 262.800,100.000 262.800 C 100.220 262.800,100.400 263.340,100.400 264.000 C 100.400 264.660,100.580 265.200,100.800 265.200 C 101.020 265.200,101.200 265.639,101.200 266.176 C 101.200 266.713,101.380 267.264,101.600 267.400 C 101.820 267.536,102.000 267.997,102.000 268.424 C 102.000 268.851,102.180 269.200,102.400 269.200 C 102.620 269.200,102.800 269.639,102.800 270.176 C 102.800 270.713,102.980 271.264,103.200 271.400 C 103.420 271.536,103.600 272.087,103.600 272.624 C 103.600 273.161,103.780 273.600,104.000 273.600 C 104.220 273.600,104.400 273.960,104.400 274.400 C 104.400 274.840,104.580 275.200,104.800 275.200 C 105.020 275.200,105.200 275.740,105.200 276.400 C 105.200 277.060,105.380 277.600,105.600 277.600 C 105.820 277.600,106.000 278.140,106.000 278.800 C 106.000 279.460,106.180 280.000,106.400 280.000 C 106.620 280.000,106.800 280.360,106.800 280.800 C 106.800 281.240,106.980 281.600,107.200 281.600 C 107.420 281.600,107.600 282.140,107.600 282.800 C 107.600 283.460,107.780 284.000,108.000 284.000 C 108.220 284.000,108.400 284.275,108.400 284.611 C 108.400 285.395,111.207 291.357,111.659 291.533 C 111.846 291.607,112.000 292.012,112.000 292.433 C 112.000 292.855,112.180 293.200,112.400 293.200 C 112.620 293.200,112.800 293.478,112.800 293.817 C 112.800 294.156,113.160 294.820,113.600 295.292 C 114.040 295.764,114.400 296.387,114.400 296.675 C 114.400 296.964,114.580 297.200,114.800 297.200 C 115.020 297.200,115.200 297.436,115.200 297.725 C 115.200 298.013,115.560 298.636,116.000 299.108 C 116.440 299.580,116.800 300.127,116.800 300.324 C 116.800 300.521,117.340 301.246,118.000 301.937 C 118.660 302.628,119.200 303.353,119.200 303.548 C 119.200 303.744,119.920 304.645,120.800 305.552 C 121.680 306.459,122.400 307.284,122.400 307.385 C 122.400 307.935,133.529 319.200,134.072 319.200 C 134.267 319.200,135.057 319.830,135.827 320.600 C 136.597 321.370,137.376 322.000,137.559 322.000 C 137.742 322.000,138.501 322.535,139.246 323.189 C 139.991 323.842,141.095 324.584,141.700 324.837 C 142.305 325.090,142.800 325.455,142.800 325.649 C 142.800 325.842,143.070 326.000,143.400 326.000 C 143.730 326.000,144.000 326.180,144.000 326.400 C 144.000 326.620,144.270 326.800,144.600 326.800 C 144.930 326.800,145.200 326.980,145.200 327.200 C 145.200 327.420,145.455 327.600,145.767 327.600 C 146.078 327.600,146.393 327.735,146.467 327.900 C 146.587 328.170,148.689 329.378,151.097 330.560 C 151.590 330.802,151.995 331.135,151.997 331.300 C 151.999 331.465,152.360 331.600,152.800 331.600 C 153.240 331.600,153.600 331.780,153.600 332.000 C 153.600 332.220,153.960 332.400,154.400 332.400 C 154.840 332.400,155.200 332.580,155.200 332.800 C 155.200 333.020,155.436 333.200,155.725 333.200 C 156.216 333.200,158.929 334.346,160.495 335.215 C 160.877 335.427,161.552 335.600,161.995 335.600 C 162.438 335.600,162.800 335.780,162.800 336.000 C 162.800 336.220,163.149 336.400,163.576 336.400 C 164.003 336.400,164.464 336.580,164.600 336.800 C 164.736 337.020,165.276 337.200,165.800 337.200 C 166.324 337.200,166.864 337.380,167.000 337.600 C 167.136 337.820,167.676 338.000,168.200 338.000 C 168.724 338.000,169.264 338.180,169.400 338.400 C 169.536 338.620,170.166 338.800,170.800 338.800 C 171.434 338.800,172.052 338.961,172.174 339.158 C 172.295 339.355,173.071 339.604,173.897 339.713 C 174.724 339.822,176.532 340.200,177.915 340.554 C 179.298 340.908,181.959 341.315,183.828 341.459 C 185.698 341.603,187.322 341.873,187.437 342.060 C 187.553 342.247,193.206 342.400,200.000 342.400 C 206.794 342.400,212.447 342.247,212.563 342.060 C 212.678 341.873,214.302 341.603,216.172 341.459 C 218.041 341.315,220.702 340.910,222.085 340.558 C 223.468 340.206,225.187 339.827,225.904 339.715 C 226.621 339.603,227.306 339.351,227.427 339.156 C 227.548 338.960,228.042 338.797,228.524 338.794 C 229.481 338.787,232.220 337.913,232.659 337.474 C 232.810 337.323,233.266 337.200,233.672 337.200 C 234.078 337.200,234.723 337.041,235.105 336.847 C 235.487 336.652,236.340 336.271,237.000 336.000 C 237.660 335.729,238.513 335.348,238.895 335.153 C 239.277 334.959,239.862 334.800,240.195 334.800 C 240.528 334.800,240.800 334.620,240.800 334.400 C 240.800 334.180,241.160 334.000,241.600 334.000 C 242.040 334.000,242.400 333.820,242.400 333.600 C 242.400 333.380,242.634 333.200,242.920 333.200 C 243.656 333.200,245.593 332.259,245.597 331.900 C 245.599 331.735,245.960 331.600,246.400 331.600 C 246.840 331.600,247.200 331.420,247.200 331.200 C 247.200 330.980,247.560 330.800,248.000 330.800 C 248.440 330.800,248.800 330.641,248.800 330.447 C 248.800 330.252,249.115 329.993,249.500 329.871 C 250.187 329.654,252.406 328.395,252.800 327.999 C 252.910 327.889,253.495 327.544,254.100 327.232 C 254.705 326.920,255.200 326.515,255.200 326.332 C 255.200 326.150,255.470 326.000,255.800 326.000 C 256.130 326.000,256.400 325.832,256.400 325.627 C 256.400 325.422,256.732 325.149,257.137 325.020 C 258.043 324.732,261.773 322.052,263.400 320.519 C 264.060 319.897,265.230 318.944,266.000 318.402 C 267.783 317.146,276.800 307.944,276.800 307.381 C 276.800 307.277,277.340 306.628,278.000 305.937 C 278.660 305.246,279.200 304.510,279.200 304.301 C 279.200 304.092,279.740 303.417,280.400 302.800 C 281.060 302.183,281.600 301.526,281.601 301.340 C 281.601 301.153,282.141 300.370,282.800 299.600 C 283.459 298.830,283.999 297.975,283.999 297.700 C 284.000 297.425,284.158 297.200,284.351 297.200 C 284.545 297.200,284.927 296.660,285.200 296.000 C 285.473 295.340,285.855 294.800,286.049 294.800 C 286.242 294.800,286.400 294.455,286.400 294.033 C 286.400 293.612,286.542 293.207,286.715 293.133 C 287.477 292.811,291.600 284.913,291.600 283.776 C 291.600 283.459,291.780 283.200,292.000 283.200 C 292.220 283.200,292.400 282.840,292.400 282.400 C 292.400 281.960,292.580 281.600,292.800 281.600 C 293.020 281.600,293.200 281.251,293.200 280.824 C 293.200 280.397,293.380 279.936,293.600 279.800 C 293.820 279.664,294.000 279.113,294.000 278.576 C 294.000 278.039,294.180 277.600,294.400 277.600 C 294.620 277.600,294.800 277.060,294.800 276.400 C 294.800 275.740,294.980 275.200,295.200 275.200 C 295.420 275.200,295.600 274.840,295.600 274.400 C 295.600 273.960,295.780 273.600,296.000 273.600 C 296.220 273.600,296.400 273.161,296.400 272.624 C 296.400 272.087,296.580 271.536,296.800 271.400 C 297.020 271.264,297.200 270.713,297.200 270.176 C 297.200 269.639,297.380 269.200,297.600 269.200 C 297.820 269.200,298.000 268.851,298.000 268.424 C 298.000 267.997,298.180 267.536,298.400 267.400 C 298.620 267.264,298.800 266.713,298.800 266.176 C 298.800 265.639,298.980 265.200,299.200 265.200 C 299.420 265.200,299.600 264.660,299.600 264.000 C 299.600 263.340,299.780 262.800,300.000 262.800 C 300.220 262.800,300.400 262.451,300.400 262.024 C 300.400 261.597,300.580 261.136,300.800 261.000 C 301.020 260.864,301.200 260.401,301.200 259.971 C 301.200 259.541,301.380 258.832,301.600 258.395 C 301.820 257.958,302.180 257.242,302.400 256.805 C 302.620 256.368,302.800 255.648,302.800 255.205 C 302.800 254.762,302.947 254.400,303.128 254.400 C 303.308 254.400,303.704 253.489,304.007 252.375 C 304.310 251.261,304.703 250.260,304.879 250.151 C 305.056 250.042,305.200 249.513,305.200 248.976 C 305.200 248.439,305.335 247.999,305.500 247.998 C 305.665 247.997,306.242 246.602,306.782 244.898 C 307.321 243.194,307.995 241.350,308.279 240.800 C 308.563 240.250,308.796 239.406,308.798 238.924 C 308.799 238.442,308.980 237.936,309.200 237.800 C 309.420 237.664,309.600 237.113,309.600 236.576 C 309.600 236.039,309.780 235.600,310.000 235.600 C 310.220 235.600,310.400 235.161,310.400 234.624 C 310.400 234.087,310.580 233.536,310.800 233.400 C 311.020 233.264,311.200 232.803,311.200 232.376 C 311.200 231.949,311.380 231.600,311.600 231.600 C 311.820 231.600,312.000 231.060,312.000 230.400 C 312.000 229.740,312.180 229.200,312.400 229.200 C 312.620 229.200,312.800 228.660,312.800 228.000 C 312.800 227.340,312.980 226.800,313.200 226.800 C 313.420 226.800,313.600 226.440,313.600 226.000 C 313.600 225.560,313.780 225.200,314.000 225.200 C 314.220 225.200,314.400 224.761,314.400 224.224 C 314.400 223.687,314.580 223.136,314.800 223.000 C 315.020 222.864,315.200 222.313,315.200 221.776 C 315.200 221.239,315.380 220.800,315.600 220.800 C 315.820 220.800,316.000 220.451,316.000 220.024 C 316.000 219.597,316.180 219.136,316.400 219.000 C 316.620 218.864,316.800 218.324,316.800 217.800 C 316.800 217.276,316.980 216.736,317.200 216.600 C 317.420 216.464,317.600 215.913,317.600 215.376 C 317.600 214.839,317.780 214.400,318.000 214.400 C 318.220 214.400,318.400 214.038,318.400 213.595 C 318.400 212.817,318.542 212.431,319.538 210.505 C 319.792 210.013,320.000 209.248,320.000 208.805 C 320.000 208.362,320.180 208.000,320.400 208.000 C 320.620 208.000,320.800 207.638,320.800 207.195 C 320.800 206.752,320.959 206.077,321.153 205.695 C 321.348 205.313,321.729 204.460,322.000 203.800 C 322.271 203.140,322.652 202.287,322.847 201.905 C 323.041 201.523,323.200 200.884,323.200 200.485 C 323.200 200.086,323.356 199.589,323.547 199.380 C 324.061 198.817,325.200 195.199,325.200 194.129 C 325.200 193.618,325.380 193.200,325.600 193.200 C 325.820 193.200,326.000 192.840,326.000 192.400 C 326.000 191.960,326.180 191.600,326.400 191.600 C 326.620 191.600,326.800 191.060,326.800 190.400 C 326.800 189.740,326.980 189.200,327.200 189.200 C 327.420 189.200,327.600 188.750,327.600 188.200 C 327.600 187.650,327.780 187.200,328.000 187.200 C 328.220 187.200,328.400 186.660,328.400 186.000 C 328.400 185.340,328.580 184.800,328.800 184.800 C 329.020 184.800,329.200 184.451,329.200 184.024 C 329.200 183.597,329.380 183.136,329.600 183.000 C 329.820 182.864,330.000 182.313,330.000 181.776 C 330.000 181.239,330.180 180.800,330.400 180.800 C 330.620 180.800,330.800 180.260,330.800 179.600 C 330.800 178.940,330.980 178.400,331.200 178.400 C 331.420 178.400,331.600 178.051,331.600 177.624 C 331.600 177.197,331.780 176.736,332.000 176.600 C 332.220 176.464,332.400 175.913,332.400 175.376 C 332.400 174.839,332.580 174.400,332.800 174.400 C 333.020 174.400,333.200 173.961,333.200 173.424 C 333.200 172.887,333.380 172.336,333.600 172.200 C 333.820 172.064,334.000 171.603,334.000 171.176 C 334.000 170.749,334.180 170.400,334.400 170.400 C 334.620 170.400,334.800 169.961,334.800 169.424 C 334.800 168.887,334.980 168.336,335.200 168.200 C 335.420 168.064,335.600 167.513,335.600 166.976 C 335.600 166.439,335.780 166.000,336.000 166.000 C 336.220 166.000,336.400 165.586,336.400 165.080 C 336.400 164.574,336.543 163.989,336.718 163.780 C 336.893 163.571,337.265 162.680,337.545 161.800 C 337.824 160.920,338.221 159.795,338.426 159.300 C 340.091 155.290,341.187 152.241,341.449 150.892 C 341.589 150.172,341.860 149.486,342.052 149.368 C 342.243 149.250,342.400 148.713,342.400 148.176 C 342.400 147.639,342.580 147.200,342.800 147.200 C 343.020 147.200,343.200 146.660,343.200 146.000 C 343.200 145.340,343.380 144.800,343.600 144.800 C 343.820 144.800,344.000 144.440,344.000 144.000 C 344.000 143.560,344.180 143.200,344.400 143.200 C 344.620 143.200,344.800 142.660,344.800 142.000 C 344.800 141.340,344.980 140.800,345.200 140.800 C 345.420 140.800,345.600 140.438,345.600 139.995 C 345.600 139.552,345.808 138.787,346.062 138.295 C 347.058 136.369,347.200 135.983,347.200 135.205 C 347.200 134.762,347.380 134.400,347.600 134.400 C 347.820 134.400,348.000 133.950,348.000 133.400 C 348.000 132.850,348.180 132.400,348.400 132.400 C 348.620 132.400,348.800 131.860,348.800 131.200 C 348.800 130.540,348.947 130.000,349.128 130.000 C 349.308 130.000,349.700 129.100,350.000 128.000 C 350.300 126.900,350.692 126.000,350.872 126.000 C 351.053 126.000,351.200 125.460,351.200 124.800 C 351.200 124.140,351.380 123.600,351.600 123.600 C 351.820 123.600,352.000 123.328,352.000 122.995 C 352.000 122.662,352.180 122.032,352.400 121.595 C 352.620 121.158,352.980 120.442,353.200 120.005 C 353.420 119.568,353.600 118.936,353.600 118.600 C 353.600 118.264,353.759 117.677,353.953 117.295 C 354.596 116.031,355.137 114.630,356.000 112.000 C 356.877 109.326,357.062 108.839,358.159 106.340 C 358.512 105.536,358.800 104.411,358.800 103.840 C 358.800 103.268,358.980 102.800,359.200 102.800 C 359.420 102.800,359.600 102.350,359.600 101.800 C 359.600 101.250,359.780 100.800,360.000 100.800 C 360.220 100.800,360.400 100.350,360.400 99.800 C 360.400 99.250,360.580 98.800,360.800 98.800 C 361.020 98.800,361.200 98.260,361.200 97.600 C 361.200 96.940,361.380 96.400,361.600 96.400 C 361.820 96.400,362.000 96.051,362.000 95.624 C 362.000 95.197,362.180 94.736,362.400 94.600 C 362.620 94.464,362.800 93.913,362.800 93.376 C 362.800 92.839,362.980 92.400,363.200 92.400 C 363.420 92.400,363.600 91.860,363.600 91.200 C 363.600 90.540,363.780 90.000,364.000 90.000 C 364.220 90.000,364.400 89.550,364.400 89.000 C 364.400 88.450,364.580 88.000,364.800 88.000 C 365.020 88.000,365.200 87.561,365.200 87.024 C 365.200 86.487,365.380 85.936,365.600 85.800 C 365.820 85.664,366.000 85.203,366.000 84.776 C 366.000 84.349,366.180 84.000,366.400 84.000 C 366.620 84.000,366.800 83.460,366.800 82.800 C 366.800 82.140,366.980 81.600,367.200 81.600 C 367.420 81.600,367.600 81.161,367.600 80.624 C 367.600 80.087,367.780 79.536,368.000 79.400 C 368.220 79.264,368.400 78.803,368.400 78.376 C 368.400 77.949,368.580 77.600,368.800 77.600 C 369.020 77.600,369.200 77.060,369.200 76.400 C 369.200 75.740,369.380 75.200,369.600 75.200 C 369.820 75.200,370.000 74.921,370.000 74.581 C 370.000 74.240,370.360 73.216,370.800 72.306 C 371.240 71.395,371.600 70.360,371.600 70.005 C 371.600 69.650,371.743 69.189,371.918 68.980 C 372.093 68.771,372.465 67.880,372.745 67.000 C 373.024 66.120,373.444 65.009,373.678 64.531 C 374.221 63.418,373.778 61.630,372.888 61.347 C 372.510 61.226,371.840 60.989,371.400 60.819 C 368.366 59.650,363.090 58.414,361.100 58.406 C 360.275 58.403,359.600 58.220,359.600 58.000 C 359.600 57.763,358.133 57.600,356.000 57.600 C 353.867 57.600,352.400 57.437,352.400 57.200 C 352.400 56.950,350.000 56.800,346.000 56.800 C 342.000 56.800,339.600 56.950,339.600 57.200 C 339.600 57.433,338.265 57.600,336.395 57.600 C 334.632 57.600,332.877 57.761,332.495 57.958 C 332.113 58.154,330.540 58.506,329.000 58.740 C 327.460 58.973,325.210 59.454,324.000 59.807 C 322.790 60.161,321.170 60.631,320.400 60.852 C 319.630 61.072,318.595 61.421,318.100 61.626 C 317.605 61.832,316.795 62.156,316.300 62.347 C 315.805 62.538,314.250 63.258,312.844 63.947 C 311.438 64.636,310.043 65.200,309.744 65.200 C 309.445 65.200,309.197 65.335,309.194 65.500 C 309.190 65.665,308.290 66.240,307.194 66.779 C 306.097 67.317,305.200 67.902,305.200 68.079 C 305.200 68.255,304.922 68.400,304.583 68.400 C 304.244 68.400,303.580 68.760,303.108 69.200 C 302.636 69.640,302.013 70.000,301.725 70.000 C 301.436 70.000,301.200 70.141,301.200 70.314 C 301.200 70.486,300.655 70.949,299.989 71.343 C 299.323 71.736,298.341 72.495,297.807 73.029 C 297.273 73.563,296.687 74.000,296.504 74.000 C 296.321 74.000,295.368 74.715,294.386 75.589 C 293.403 76.462,292.465 77.182,292.300 77.189 C 292.135 77.195,292.000 77.470,292.000 77.800 C 292.000 78.130,291.821 78.400,291.601 78.400 C 291.114 78.400,288.000 81.170,288.000 81.604 C 288.000 81.775,286.740 83.213,285.200 84.800 C 283.660 86.387,282.400 87.869,282.400 88.095 C 282.400 88.321,282.068 88.797,281.663 89.153 C 281.257 89.509,280.703 90.219,280.432 90.732 C 280.160 91.244,279.637 92.014,279.269 92.442 C 277.894 94.043,274.800 99.744,274.800 100.675 C 274.800 100.964,274.620 101.200,274.400 101.200 C 274.180 101.200,274.000 101.560,274.000 102.000 C 274.000 102.440,273.820 102.800,273.600 102.800 C 273.380 102.800,273.200 103.160,273.200 103.600 C 273.200 104.040,273.020 104.400,272.800 104.400 C 272.580 104.400,272.400 104.760,272.400 105.200 C 272.400 105.640,272.220 106.000,272.000 106.000 C 271.780 106.000,271.600 106.540,271.600 107.200 C 271.600 107.860,271.420 108.400,271.200 108.400 C 270.980 108.400,270.800 108.760,270.800 109.200 C 270.800 109.640,270.620 110.000,270.400 110.000 C 270.180 110.000,270.000 110.362,270.000 110.805 C 270.000 111.248,269.841 111.923,269.647 112.305 C 269.452 112.687,269.071 113.540,268.800 114.200 C 268.529 114.860,268.148 115.713,267.953 116.095 C 267.759 116.477,267.600 117.152,267.600 117.595 C 267.600 118.038,267.420 118.400,267.200 118.400 C 266.980 118.400,266.800 118.762,266.800 119.205 C 266.800 119.648,266.592 120.413,266.338 120.905 C 265.342 122.831,265.200 123.217,265.200 123.995 C 265.200 124.438,265.020 124.800,264.800 124.800 C 264.580 124.800,264.400 125.162,264.400 125.605 C 264.400 126.048,264.241 126.723,264.047 127.105 C 263.852 127.487,263.471 128.340,263.200 129.000 C 262.929 129.660,262.548 130.513,262.353 130.895 C 262.159 131.277,262.000 131.952,262.000 132.395 C 262.000 132.838,261.859 133.200,261.687 133.200 C 261.515 133.200,261.125 134.055,260.820 135.100 C 260.515 136.145,260.140 137.270,259.986 137.600 C 259.443 138.768,258.706 141.014,258.508 142.105 C 258.398 142.713,258.149 143.308,257.954 143.429 C 257.759 143.549,257.600 144.087,257.600 144.624 C 257.600 145.161,257.420 145.600,257.200 145.600 C 256.980 145.600,256.800 145.949,256.800 146.376 C 256.800 146.803,256.620 147.264,256.400 147.400 C 256.180 147.536,256.000 148.087,256.000 148.624 C 256.000 149.161,255.820 149.600,255.600 149.600 C 255.380 149.600,255.200 150.039,255.200 150.576 C 255.200 151.113,255.020 151.664,254.800 151.800 C 254.580 151.936,254.400 152.397,254.400 152.824 C 254.400 153.251,254.220 153.600,254.000 153.600 C 253.780 153.600,253.600 154.140,253.600 154.800 C 253.600 155.460,253.420 156.000,253.200 156.000 C 252.980 156.000,252.800 156.362,252.800 156.805 C 252.800 157.248,252.641 157.923,252.447 158.305 C 252.252 158.687,251.871 159.540,251.600 160.200 C 251.329 160.860,250.948 161.713,250.753 162.095 C 250.559 162.477,250.400 163.152,250.400 163.595 C 250.400 164.038,250.220 164.400,250.000 164.400 C 249.780 164.400,249.600 164.839,249.600 165.376 C 249.600 165.913,249.420 166.464,249.200 166.600 C 248.980 166.736,248.800 167.197,248.800 167.624 C 248.800 168.051,248.620 168.400,248.400 168.400 C 248.180 168.400,248.000 168.940,248.000 169.600 C 248.000 170.260,247.853 170.800,247.672 170.800 C 247.492 170.800,247.100 171.700,246.800 172.800 C 246.500 173.900,246.108 174.800,245.928 174.800 C 245.747 174.800,245.600 175.162,245.600 175.605 C 245.600 176.048,245.441 176.723,245.247 177.105 C 244.145 179.271,242.351 184.300,242.109 185.900 C 242.001 186.615,241.752 187.200,241.556 187.200 C 241.360 187.200,241.200 187.740,241.200 188.400 C 241.200 189.060,241.020 189.600,240.800 189.600 C 240.580 189.600,240.400 189.960,240.400 190.400 C 240.400 190.840,240.220 191.200,240.000 191.200 C 239.780 191.200,239.600 191.740,239.600 192.400 C 239.600 193.060,239.420 193.600,239.200 193.600 C 238.980 193.600,238.800 194.050,238.800 194.600 C 238.800 195.150,238.620 195.600,238.400 195.600 C 238.180 195.600,238.000 196.039,238.000 196.576 C 238.000 197.113,237.820 197.664,237.600 197.800 C 237.380 197.936,237.200 198.397,237.200 198.824 C 237.200 199.251,237.020 199.600,236.800 199.600 C 236.580 199.600,236.400 200.140,236.400 200.800 C 236.400 201.460,236.220 202.000,236.000 202.000 C 235.780 202.000,235.600 202.439,235.600 202.976 C 235.600 203.513,235.420 204.064,235.200 204.200 C 234.980 204.336,234.800 204.797,234.800 205.224 C 234.800 205.651,234.620 206.000,234.400 206.000 C 234.180 206.000,234.000 206.540,234.000 207.200 C 234.000 207.860,233.820 208.400,233.600 208.400 C 233.380 208.400,233.200 208.672,233.200 209.005 C 233.200 209.338,233.020 209.968,232.800 210.405 C 232.580 210.842,232.220 211.558,232.000 211.995 C 231.780 212.432,231.600 213.152,231.600 213.595 C 231.600 214.038,231.420 214.400,231.200 214.400 C 230.980 214.400,230.800 214.762,230.800 215.205 C 230.800 215.648,230.620 216.368,230.400 216.805 C 230.180 217.242,229.820 217.958,229.600 218.395 C 229.380 218.832,229.200 219.464,229.200 219.800 C 229.200 220.136,229.041 220.723,228.847 221.105 C 228.371 222.040,227.782 223.507,227.200 225.200 C 226.936 225.970,226.576 226.960,226.402 227.400 C 225.492 229.693,224.800 231.903,224.800 232.513 C 224.800 232.891,224.620 233.200,224.400 233.200 C 224.180 233.200,224.000 233.740,224.000 234.400 C 224.000 235.060,223.820 235.600,223.600 235.600 C 223.380 235.600,223.200 235.960,223.200 236.400 C 223.200 236.840,223.020 237.200,222.800 237.200 C 222.580 237.200,222.400 237.740,222.400 238.400 C 222.400 239.060,222.220 239.600,222.000 239.600 C 221.780 239.600,221.600 240.140,221.600 240.800 C 221.600 241.460,221.420 242.000,221.200 242.000 C 220.980 242.000,220.800 242.360,220.800 242.800 C 220.800 243.240,220.620 243.600,220.400 243.600 C 220.180 243.600,220.000 243.962,220.000 244.405 C 220.000 244.848,219.841 245.523,219.647 245.905 C 219.452 246.287,219.071 247.140,218.800 247.800 C 218.529 248.460,218.148 249.313,217.953 249.695 C 217.759 250.077,217.600 250.628,217.600 250.919 C 217.600 251.211,217.240 252.195,216.800 253.106 C 216.360 254.016,216.000 255.040,216.000 255.381 C 216.000 255.721,215.820 256.000,215.600 256.000 C 215.380 256.000,215.200 256.320,215.200 256.712 C 215.200 257.103,214.840 257.683,214.400 258.000 C 213.960 258.317,213.600 258.768,213.600 259.002 C 213.600 259.589,209.489 263.600,208.887 263.600 C 208.619 263.600,208.399 263.735,208.397 263.900 C 208.393 264.259,206.456 265.200,205.720 265.200 C 205.434 265.200,205.200 265.380,205.200 265.600 C 205.200 266.623,193.476 265.892,192.400 264.801 C 192.290 264.690,191.732 264.358,191.160 264.064 C 189.299 263.107,184.800 258.388,184.800 257.393 C 184.800 257.067,184.620 256.800,184.400 256.800 C 184.180 256.800,184.000 256.440,184.000 256.000 C 184.000 255.560,183.820 255.200,183.600 255.200 C 183.380 255.200,183.200 254.840,183.200 254.400 C 183.200 253.960,183.020 253.600,182.800 253.600 C 182.580 253.600,182.400 253.060,182.400 252.400 C 182.400 251.740,182.220 251.200,182.000 251.200 C 181.780 251.200,181.600 250.851,181.600 250.424 C 181.600 249.997,181.420 249.536,181.200 249.400 C 180.980 249.264,180.800 248.713,180.800 248.176 C 180.800 247.639,180.620 247.200,180.400 247.200 C 180.180 247.200,180.000 246.761,180.000 246.224 C 180.000 245.687,179.820 245.136,179.600 245.000 C 179.380 244.864,179.200 244.403,179.200 243.976 C 179.200 243.549,179.020 243.200,178.800 243.200 C 178.580 243.200,178.400 242.750,178.400 242.200 C 178.400 241.650,178.220 241.200,178.000 241.200 C 177.780 241.200,177.600 240.660,177.600 240.000 C 177.600 239.340,177.420 238.800,177.200 238.800 C 176.980 238.800,176.800 238.451,176.800 238.024 C 176.800 237.597,176.620 237.136,176.400 237.000 C 176.180 236.864,176.000 236.313,176.000 235.776 C 176.000 235.239,175.820 234.800,175.600 234.800 C 175.380 234.800,175.200 234.347,175.200 233.794 C 175.200 233.241,174.603 231.306,173.873 229.494 C 173.143 227.682,172.293 225.345,171.985 224.300 C 171.677 223.255,171.285 222.400,171.113 222.400 C 170.941 222.400,170.800 221.961,170.800 221.424 C 170.800 220.887,170.620 220.336,170.400 220.200 C 170.180 220.064,170.000 219.524,170.000 219.000 C 170.000 218.476,169.820 217.936,169.600 217.800 C 169.380 217.664,169.200 217.203,169.200 216.776 C 169.200 216.349,169.020 216.000,168.800 216.000 C 168.580 216.000,168.400 215.638,168.400 215.195 C 168.400 214.752,168.241 214.077,168.047 213.695 C 167.852 213.313,167.471 212.460,167.200 211.800 C 166.929 211.140,166.548 210.287,166.353 209.905 C 166.159 209.523,166.000 208.848,166.000 208.405 C 166.000 207.962,165.820 207.600,165.600 207.600 C 165.380 207.600,165.200 207.161,165.200 206.624 C 165.200 206.087,165.020 205.536,164.800 205.400 C 164.580 205.264,164.400 204.803,164.400 204.376 C 164.400 203.949,164.220 203.600,164.000 203.600 C 163.780 203.600,163.600 203.060,163.600 202.400 C 163.600 201.740,163.420 201.200,163.200 201.200 C 162.980 201.200,162.800 200.750,162.800 200.200 C 162.800 199.650,162.620 199.200,162.400 199.200 C 162.180 199.200,162.000 198.750,162.000 198.200 C 162.000 197.650,161.820 197.200,161.600 197.200 C 161.380 197.200,161.200 196.761,161.200 196.224 C 161.200 195.687,161.020 195.136,160.800 195.000 C 160.580 194.864,160.400 194.313,160.400 193.776 C 160.400 193.239,160.220 192.800,160.000 192.800 C 159.780 192.800,159.600 192.451,159.600 192.024 C 159.600 191.597,159.444 191.151,159.253 191.032 C 159.061 190.914,158.788 190.084,158.644 189.187 C 158.501 188.290,158.042 186.801,157.625 185.878 C 157.208 184.955,156.471 183.030,155.987 181.600 C 155.503 180.170,154.948 178.829,154.753 178.620 C 154.559 178.411,154.400 177.826,154.400 177.320 C 154.400 176.814,154.220 176.400,154.000 176.400 C 153.780 176.400,153.600 175.961,153.600 175.424 C 153.600 174.887,153.420 174.336,153.200 174.200 C 152.980 174.064,152.800 173.603,152.800 173.176 C 152.800 172.749,152.620 172.400,152.400 172.400 C 152.180 172.400,152.000 171.860,152.000 171.200 C 152.000 170.540,151.820 170.000,151.600 170.000 C 151.380 170.000,151.200 169.638,151.200 169.195 C 151.200 168.752,151.041 168.077,150.847 167.695 C 150.652 167.313,150.271 166.460,150.000 165.800 C 149.729 165.140,149.348 164.287,149.153 163.905 C 148.959 163.523,148.800 162.848,148.800 162.405 C 148.800 161.962,148.620 161.600,148.400 161.600 C 148.180 161.600,148.000 161.161,148.000 160.624 C 148.000 160.087,147.820 159.536,147.600 159.400 C 147.380 159.264,147.200 158.803,147.200 158.376 C 147.200 157.949,147.020 157.600,146.800 157.600 C 146.580 157.600,146.400 157.060,146.400 156.400 C 146.400 155.740,146.220 155.200,146.000 155.200 C 145.780 155.200,145.600 154.761,145.600 154.224 C 145.600 153.687,145.420 153.136,145.200 153.000 C 144.980 152.864,144.800 152.403,144.800 151.976 C 144.800 151.549,144.620 151.200,144.400 151.200 C 144.180 151.200,144.000 150.660,144.000 150.000 C 144.000 149.340,143.820 148.800,143.600 148.800 C 143.380 148.800,143.200 148.350,143.200 147.800 C 143.200 147.250,143.020 146.800,142.800 146.800 C 142.580 146.800,142.400 146.350,142.400 145.800 C 142.400 145.250,142.220 144.800,142.000 144.800 C 141.780 144.800,141.599 144.395,141.598 143.900 C 141.596 143.405,141.326 142.484,140.998 141.854 C 140.669 141.224,140.400 140.405,140.400 140.034 C 140.400 139.663,140.257 139.189,140.082 138.980 C 139.907 138.771,139.535 137.880,139.255 137.000 C 138.724 135.326,138.150 133.878,137.553 132.705 C 137.359 132.323,137.200 131.736,137.200 131.400 C 137.200 131.064,137.020 130.432,136.800 129.995 C 136.580 129.558,136.220 128.842,136.000 128.405 C 135.780 127.968,135.600 127.338,135.600 127.005 C 135.600 126.672,135.420 126.400,135.200 126.400 C 134.980 126.400,134.800 125.860,134.800 125.200 C 134.800 124.540,134.620 124.000,134.400 124.000 C 134.180 124.000,134.000 123.561,134.000 123.024 C 134.000 122.487,133.820 121.936,133.600 121.800 C 133.380 121.664,133.200 121.203,133.200 120.776 C 133.200 120.349,133.020 120.000,132.800 120.000 C 132.580 120.000,132.400 119.460,132.400 118.800 C 132.400 118.140,132.220 117.600,132.000 117.600 C 131.780 117.600,131.600 117.161,131.600 116.624 C 131.600 116.087,131.420 115.536,131.200 115.400 C 130.980 115.264,130.800 114.803,130.800 114.376 C 130.800 113.949,130.620 113.600,130.400 113.600 C 130.180 113.600,130.000 113.161,130.000 112.624 C 130.000 112.087,129.820 111.536,129.600 111.400 C 129.380 111.264,129.200 110.713,129.200 110.176 C 129.200 109.639,129.020 109.200,128.800 109.200 C 128.580 109.200,128.400 108.840,128.400 108.400 C 128.400 107.960,128.220 107.600,128.000 107.600 C 127.780 107.600,127.600 107.060,127.600 106.400 C 127.600 105.740,127.420 105.200,127.200 105.200 C 126.980 105.200,126.800 104.840,126.800 104.400 C 126.800 103.960,126.620 103.600,126.400 103.600 C 126.180 103.600,126.000 103.240,126.000 102.800 C 126.000 102.360,125.820 102.000,125.600 102.000 C 125.380 102.000,125.200 101.685,125.199 101.300 C 125.198 100.915,124.612 99.610,123.896 98.400 C 123.181 97.190,122.342 95.708,122.033 95.107 C 121.725 94.505,121.141 93.658,120.736 93.223 C 120.331 92.789,120.000 92.280,120.000 92.092 C 120.000 91.904,119.680 91.402,119.289 90.975 C 118.898 90.549,118.140 89.570,117.605 88.800 C 117.069 88.030,116.129 86.923,115.515 86.340 C 114.902 85.756,114.400 85.098,114.400 84.876 C 114.400 84.336,108.210 78.080,106.200 76.589 C 105.320 75.937,104.123 74.907,103.540 74.301 C 102.956 73.696,102.326 73.200,102.140 73.199 C 101.953 73.199,101.170 72.659,100.400 72.000 C 99.630 71.341,98.815 70.801,98.588 70.801 C 98.362 70.800,97.917 70.440,97.600 70.000 C 97.283 69.560,96.703 69.200,96.312 69.200 C 95.920 69.200,95.600 69.020,95.600 68.800 C 95.600 68.580,95.364 68.400,95.075 68.400 C 94.787 68.400,94.164 68.040,93.692 67.600 C 93.220 67.160,92.556 66.800,92.217 66.800 C 91.878 66.800,91.600 66.620,91.600 66.400 C 91.600 66.180,91.255 66.000,90.833 66.000 C 90.412 66.000,90.007 65.865,89.933 65.700 C 89.758 65.305,84.822 62.800,84.219 62.800 C 83.961 62.800,83.005 62.440,82.094 62.000 C 81.184 61.560,80.171 61.200,79.843 61.200 C 79.515 61.200,79.148 61.040,79.027 60.844 C 78.906 60.649,78.221 60.393,77.504 60.276 C 76.787 60.159,74.760 59.691,73.000 59.235 C 71.240 58.779,69.136 58.405,68.324 58.403 C 67.512 58.401,66.736 58.220,66.600 58.000 C 66.464 57.780,64.833 57.600,62.976 57.600 C 60.992 57.600,59.600 57.435,59.600 57.200 C 59.600 56.951,57.275 56.800,53.424 56.800 C 49.737 56.800,47.148 56.961,47.000 57.200 " stroke="none" fill="#040404" fill-rule="evenodd"></path></g></svg>