<?xml version="1.0" standalone="no"?>
<!DOCTYPE svg PUBLIC "-//W3C//DTD SVG 20010904//EN"
 "http://www.w3.org/TR/2001/REC-SVG-20010904/DTD/svg10.dtd">
<svg version="1.0" xmlns="http://www.w3.org/2000/svg"
 width="825.000000pt" height="825.000000pt" viewBox="0 0 825.000000 825.000000"
 preserveAspectRatio="xMidYMid meet">
<metadata>
Created by potrace 1.14, written by Peter Selinger 2001-2017
</metadata>
<g transform="translate(0.000000,825.000000) scale(0.100000,-0.100000)"
fill="#000000" stroke="none">
<path d="M997 7054 c-1 -1 -33 -5 -70 -9 -37 -3 -78 -8 -90 -11 -12 -2 -40 -7
-61 -10 -37 -6 -203 -58 -211 -66 -4 -4 19 -78 35 -113 5 -11 23 -60 40 -110
17 -49 35 -99 40 -110 5 -11 50 -132 100 -270 50 -137 95 -259 100 -270 12
-25 53 -137 56 -150 1 -5 34 -93 72 -195 38 -102 104 -279 146 -395 43 -115
81 -219 86 -230 12 -27 230 -616 235 -635 2 -8 94 -258 205 -555 111 -297 255
-686 321 -865 228 -615 252 -675 296 -765 224 -446 636 -800 1140 -979 134
-47 296 -83 458 -102 87 -11 378 -11 465 -1 133 16 364 69 450 104 8 4 17 7
20 8 3 1 14 5 25 10 11 4 41 16 67 26 46 18 162 76 243 121 22 13 78 49 125
82 215 149 399 337 546 557 125 188 181 313 409 930 119 321 229 618 245 659
15 41 60 163 99 270 40 107 76 206 82 220 6 14 35 91 64 171 29 80 128 347
220 595 92 247 198 535 237 639 38 105 103 278 143 385 137 366 355 957 355
963 0 9 -188 66 -236 72 -21 3 -46 7 -54 10 -65 18 -308 24 -440 11 -483 -48
-947 -341 -1209 -763 -84 -136 -113 -204 -305 -718 -103 -275 -241 -642 -306
-815 -65 -173 -218 -583 -340 -910 -353 -947 -325 -877 -377 -951 -73 -105
-183 -159 -315 -154 -92 4 -123 14 -194 61 -59 40 -100 87 -140 167 -21 40
-422 1100 -499 1317 -13 36 -42 115 -65 175 -23 61 -55 146 -71 190 -17 44
-34 89 -39 100 -5 11 -68 180 -140 375 -72 195 -145 389 -160 430 -16 41 -63
165 -104 275 -87 235 -118 305 -180 412 -258 447 -732 757 -1236 809 -58 6
-278 12 -283 8z"/>
<path d="M4149 6946 c-2 -2 -47 -6 -99 -9 -138 -8 -217 -27 -335 -80 -484
-217 -709 -784 -506 -1275 205 -492 772 -732 1270 -536 304 120 537 400 602
724 17 86 19 266 4 352 -37 212 -126 381 -284 538 -156 155 -362 254 -574 276
-34 4 -65 8 -68 10 -3 2 -8 2 -10 0z"/>
</g>
</svg>
